<?xml version="1.0"?>
<svg xmlns="http://www.w3.org/2000/svg" viewBox="0 0 64 64" width="512" height="512"><g id="outline"><path d="M30,58A13,13,0,1,0,17,45,13.015,13.015,0,0,0,30,58Zm0-24A11,11,0,1,1,19,45,11.013,11.013,0,0,1,30,34Z"/><path d="M23.553,47.9,25,48.618V51a1,1,0,0,0,1,1h8a1,1,0,0,0,1-1V48.618l1.447-.723A1,1,0,0,0,37,47V45a6.627,6.627,0,0,0-7-7,6.627,6.627,0,0,0-7,7v2A1,1,0,0,0,23.553,47.9ZM25,45c0-3.131,1.869-5,5-5s5,1.869,5,5v1.382l-1.447.723A1,1,0,0,0,33,48v2H31V47H29v3H27V48a1,1,0,0,0-.553-.9L25,46.382Z"/><rect x="27" y="43" width="2" height="2"/><rect x="31" y="43" width="2" height="2"/><path d="M45,29V22h2V20H13v2h2v7a1,1,0,0,0,1,1h6.017a17,17,0,1,0,15.966,0H44A1,1,0,0,0,45,29ZM17,22h3v2h2V22h2v2h2V22h3v6H26V26H24v2H22V26H20v2H17ZM45,45A15,15,0,1,1,30,30,15.017,15.017,0,0,1,45,45ZM43,28H40V26H38v2H36V26H34v2H31V22h3v2h2V22h2v2h2V22h3Z"/><path d="M9,62V56.816A3,3,0,0,0,10.816,55h.3l.891,7.124,1.984-.248-1-8A1,1,0,0,0,12,53H10.816A3,3,0,0,0,9,51.184V29.816a2.982,2.982,0,0,0,0-5.632v-7.77L14.418,11C16.546,10.965,23,10.651,23,8c0-2.442-5.472-2.9-8-2.982V3a1,1,0,0,0-2,0V5.018C10.472,5.1,5,5.558,5,8c0,2.07,3.934,2.713,6.674,2.911L3.293,19.293a1,1,0,1,0,1.414,1.414L7,18.414v5.77a2.982,2.982,0,0,0,0,5.632V51.184A3,3,0,0,0,5.184,53H4a1,1,0,0,0-.992.876l-1,8,1.984.248L4.883,55h.3A3,3,0,0,0,7,56.816V62ZM14,7a17.475,17.475,0,0,1,6.728,1A17.475,17.475,0,0,1,14,9,17.475,17.475,0,0,1,7.272,8,17.475,17.475,0,0,1,14,7ZM8,26a1,1,0,1,1-1,1A1,1,0,0,1,8,26ZM8,53a1,1,0,1,1-1,1A1,1,0,0,1,8,53Z"/><path d="M62,8c0-2.465-6-2.916-9-2.987V3a1,1,0,0,0-2,0V5.013C48,5.084,42,5.535,42,8c0,.92.845,1.556,2.05,2-1.2.444-2.05,1.08-2.05,2,0,2.465,6,2.916,9,2.987v36.2A3,3,0,0,0,49.184,53H48a1,1,0,0,0-.99.858L46.133,60H44v2h3a1,1,0,0,0,.99-.858L48.867,55h.317A3,3,0,0,0,51,56.816V62h2V56.816A3,3,0,0,0,54.816,55h.317l.877,6.142A1,1,0,0,0,57,62h3V60H57.867l-.877-6.142A1,1,0,0,0,56,53H54.816A3,3,0,0,0,53,51.184v-36.2c3-.071,9-.522,9-2.987,0-.92-.845-1.556-2.05-2C61.155,9.556,62,8.92,62,8ZM52,55a1,1,0,1,1,1-1A1,1,0,0,1,52,55Zm7.616-43A22.487,22.487,0,0,1,52,13a22.487,22.487,0,0,1-7.616-1A22.487,22.487,0,0,1,52,11,22.487,22.487,0,0,1,59.616,12ZM44.384,8A22.487,22.487,0,0,1,52,7a22.487,22.487,0,0,1,7.616,1A22.487,22.487,0,0,1,52,9,22.487,22.487,0,0,1,44.384,8Z"/><path d="M38,6H35l1.8-2.4L35.2,2.4l-3,4A1,1,0,0,0,33,8h2.919l-2.7,3.375,1.562,1.25,4-5A1,1,0,0,0,38,6Z"/><path d="M27.2,7.4l-3,4A1,1,0,0,0,25,13h2.919l-2.7,3.375,1.562,1.25,4-5A1,1,0,0,0,30,11H27l1.8-2.4Z"/></g></svg>
